# xmcd CD database file
#
# Track frame offsets:
#	150
#	17314
#	33667
#	51132
#	65064
#	78459
#	94213
#	109435
#	122101
#	137558
#	150835
#	167480
#	180050
#	194887
#	209031
#	223726
#	238200
#	250966
#	266269
#	281254
#
# Disc length: 3934 seconds
#
# Revision: 0
# Processed by: cddbd v1.5.2PL0 Copyright (c) Steve Scherf et al.
# Submitted via: CDex 1.70beta2
#
DISCID=200f5c14
DTITLE=Billie Holiday - 40 suosikkia cd1
DYEAR=1900
DGENRE=Jazz
TTITLE0=Lady Sings The Blues
TTITLE1=Cheek To Cheek
TTITLE2=Moonlight In Vermont
TTITLE3=April In Paris
TTITLE4=St Louis Blues
TTITLE5=Blue Moon
TTITLE6=Love Me Or Leave Me
TTITLE7=Your Mother's Son In Law
TTITLE8=Don't Explain
TTITLE9=I Only Have Eyes For You
TTITLE10=Stormy Weather
TTITLE11=Long Gone Blues
TTITLE12=Lover Man
TTITLE13=Night And Day
TTITLE14=Embraceable You
TTITLE15=God Bless The Child
TTITLE16=Summertime
TTITLE17=Tenderly
TTITLE18=Now Or Never
TTITLE19=Strange Fruit
EXTD=
EXTT0=
EXTT1=
EXTT2=
EXTT3=
EXTT4=
EXTT5=
EXTT6=
EXTT7=
EXTT8=
EXTT9=
EXTT10=
EXTT11=
EXTT12=
EXTT13=
EXTT14=
EXTT15=
EXTT16=
EXTT17=
EXTT18=
EXTT19=
PLAYORDER=
